<?xml version="1.0" encoding="UTF-8"?>
<svg width="44px" height="39px" viewBox="0 0 44 39" version="1.1" xmlns="http://www.w3.org/2000/svg" xmlns:xlink="http://www.w3.org/1999/xlink">
    <!-- Generator: Sketch 54.1 (76490) - https://sketchapp.com -->
    <title>heart</title>
    <desc>Created with Sketch.</desc>
    <g id="Page-1" stroke="none" stroke-width="1" fill="none" fill-rule="evenodd">
        <g id="Desktop-Copy-5" transform="translate(-483.000000, -335.000000)" fill="#F3867A">
            <g id="heart" transform="translate(483.000000, 335.000000)">
                <path d="M43.777439,7.99985554 C43.7584032,7.5004432 43.6850952,7.016625 43.3724221,6.60038141 C43.3541963,6.6565603 43.3288828,6.70494212 43.3017466,6.75112477 C43.2918237,6.76751861 43.2819008,6.78391245 43.2709653,6.79930666 C43.2533471,6.82489705 43.2332988,6.84788841 43.2132504,6.87067984 C43.1767989,6.91106467 43.1383223,6.94885047 43.096403,6.98263777 C43.1403474,6.94365242 43.1808491,6.90026872 43.2189207,6.85368623 C43.2375514,6.83109472 43.2553722,6.80730366 43.2721804,6.7827129 C43.2823058,6.76771853 43.2924312,6.75292409 43.3017466,6.73713003 C43.3276677,6.69454603 43.3519687,6.64976286 43.3724221,6.60038141 C43.0289677,5.96002204 43.0394982,5.08655026 42.1573713,4.80085761 C42.1561562,4.70229465 42.1952403,4.5757422 42.1480559,4.50936714 C40.7942867,2.60768173 38.8834168,1.50109755 36.6896425,0.802560036 C36.7819864,1.10724555 37.1582471,1.38634067 37.0428173,1.66103745 C37.0302617,1.69062633 37.0209464,1.71581686 37.0108209,1.74220695 C36.9741669,1.67323287 36.9393354,1.60365901 36.9065291,1.53328545 C36.9032889,1.52648801 36.9000488,1.51989049 36.8970112,1.51309304 C36.8642048,1.44211971 36.834031,1.37014676 36.8072999,1.29677433 C36.8040598,1.28837748 36.8016297,1.27978071 36.7987946,1.27138387 C36.7769236,1.21000693 36.7582929,1.14743045 36.7418897,1.08385433 C36.7370295,1.06526132 36.7323718,1.04646838 36.7281191,1.02767544 C36.7113109,0.954103091 36.6973378,0.879531113 36.6896425,0.802560036 C36.4466323,0.629025244 36.1754735,0.566848608 35.8796086,0.602435236 C35.8468022,1.15382804 36.1839788,1.824576 36.0282498,2.19663619 C36.0146818,2.22902402 36.0053664,2.25681358 35.9934184,2.28760201 L35.9934184,2.28760201 C35.9946334,2.22142687 35.9922033,2.15525174 35.9881531,2.08927653 C35.9873431,2.07828066 35.9867356,2.06708487 35.9859256,2.056089 C35.9705349,1.84436856 35.9348934,1.63384767 35.9047197,1.42372662 C35.8970243,1.37114638 35.890139,1.31876606 35.8838613,1.26618582 C35.8816337,1.24759281 35.8796086,1.22899979 35.8775835,1.21040678 C35.8711033,1.15082917 35.8656355,1.09125156 35.8623954,1.03147402 C35.8621929,1.02847514 35.8617879,1.02527635 35.8615854,1.02207755 C35.8585477,0.960900537 35.8583452,0.899723525 35.8599653,0.838546513 C35.8603703,0.822752448 35.8609778,0.806958383 35.8617879,0.791364243 C35.8648255,0.728387907 35.8696857,0.665411571 35.8796086,0.602435236 C35.7903024,0.200186387 35.4685164,0.487278508 35.2720832,0.402710286 C33.928642,0.204584734 32.5991739,-0.269437144 31.2219137,0.202785411 C29.9821569,0.22697632 28.8361614,0.565449134 27.7790672,1.20220986 C27.8278717,1.19981076 27.8730311,1.20101031 27.9161654,1.20440903 C27.9323661,1.20560858 27.9471492,1.20860746 27.9627424,1.21060671 C27.9872459,1.21400543 28.0113444,1.21800393 28.0338229,1.2234019 C28.0520486,1.22800017 28.0694643,1.23359807 28.0862726,1.23939589 C28.1020682,1.24499378 28.1172563,1.25139138 28.1320395,1.25818883 C28.1502652,1.2667856 28.1682885,1.27578221 28.1846917,1.28637823 C28.1933995,1.29197613 28.2012974,1.29877358 28.2093977,1.30497125 C28.2985014,1.37314563 28.3547988,1.47390777 28.3760622,1.60905698 C28.3760622,1.60885706 28.3760622,1.60885706 28.3758597,1.60865713 C28.3687719,1.57067141 28.3582414,1.53548463 28.3454834,1.50209717 C28.3414332,1.49090138 28.336168,1.48050529 28.3313078,1.46990927 C28.3205749,1.44671798 28.3084243,1.42472625 28.2944513,1.40413398 C28.2881735,1.39473752 28.2818957,1.38514112 28.2750104,1.37634443 C28.2545571,1.35075404 28.2316736,1.32716291 28.2049425,1.30677057 C28.2031199,1.30557102 28.2021074,1.3037717 28.2002848,1.30257215 C28.1717311,1.28158004 28.1381147,1.26458642 28.1020682,1.24979198 C28.0911328,1.24539363 28.0791848,1.24199491 28.0678443,1.23819634 C28.0388856,1.22859994 28.0076993,1.2210028 27.9744879,1.2154049 C27.9611223,1.2130058 27.9481618,1.21040678 27.9339862,1.20880738 C27.8863967,1.20320949 27.8357696,1.20021061 27.7790672,1.20220986 C25.6549558,1.96972146 23.9690728,3.32961046 22.5140494,5.00098241 C22.1764678,5.40083216 21.8388862,5.80068191 21.5015071,6.20053166 C20.8960067,6.95704739 20.2779509,7.7053662 19.8812368,8.59943024 C19.4371357,8.05803368 19.41972,7.28292493 18.8688969,6.80010636 C18.834268,6.84329013 18.798424,6.88587413 18.762985,6.92825821 C18.7241034,6.97444085 18.6860318,7.02042357 18.6491752,7.06620637 C18.6455301,7.07080464 18.6416824,7.07560284 18.6380373,7.08020111 C18.6042183,7.12278511 18.5720195,7.16556903 18.5426558,7.20855288 C18.5410357,7.21095198 18.5396181,7.213551 18.5377956,7.2159501 C18.5084318,7.25973365 18.4819032,7.30391705 18.4602348,7.34870022 C18.4600323,7.34890014 18.4598298,7.34929999 18.4596273,7.34949992 C18.4598298,7.34949992 18.4598298,7.34949992 18.4598298,7.34949992 C18.475828,7.30651607 18.4962813,7.26313237 18.5207849,7.21934882 C18.5228099,7.21555025 18.5256451,7.21155175 18.5278727,7.20775318 C18.549136,7.17076708 18.5738421,7.13338113 18.6011807,7.09579525 C18.6092811,7.08459946 18.6179889,7.07320374 18.6268993,7.06180802 C18.6512003,7.03021989 18.6779314,6.99823191 18.7066876,6.96604401 C18.7174206,6.95404852 18.727546,6.94205302 18.7388865,6.92985761 C18.7789832,6.88707368 18.8215099,6.84388991 18.8688969,6.80010636 C18.8688969,6.73353138 18.8688969,6.66695639 18.8686944,6.60038141 C18.4272259,6.16474511 18.2498285,5.5055928 17.6538461,5.20090729 C17.5157353,5.20390616 17.4483,5.13713125 17.4511351,5.00098241 C16.8476599,4.12930996 15.9422445,3.65528808 15.0212359,3.20165854 C14.9673687,3.13068521 14.9290946,3.02932329 14.8572041,2.99333682 C12.9339811,2.02670005 10.8951258,1.62984917 8.7434733,1.80218441 C7.49197094,1.78639035 6.32633217,2.0584881 5.30082926,2.80160886 C3.10948508,3.732659 1.86264042,5.47960256 1.04815134,7.59980586 C0.57509155,8.2599578 0.425437789,9.03626609 0.238117452,9.79917941 C-0.044179359,10.8521837 0.0431017926,11.9277796 0.0356089791,12.9979774 C0.165619418,13.52338 -0.234739832,14.1143579 0.238117452,14.5973764 L0.238117452,14.3984512 C0.239737519,14.4248412 0.240750062,14.4508315 0.241762604,14.4768217 C0.241965113,14.486618 0.242370129,14.4964144 0.242370129,14.5060107 C0.242572638,14.5365993 0.241965113,14.5671878 0.238117452,14.5973764 C0.227384503,15.1663626 0.304742739,15.7137569 0.642931888,16.1967754 C0.637666668,16.8067462 0.842402733,17.3391461 1.25065981,17.7961744 C1.21623337,17.5246764 1.18180693,17.2531785 1.147583,16.9814805 C1.147583,16.9816805 1.147583,16.9816805 1.147583,16.9816805 C1.1546708,17.0048718 1.16175859,17.028263 1.16864388,17.0514543 C1.18383202,17.1020352 1.19821012,17.1526162 1.21117066,17.2035971 C1.21400578,17.214593 1.21663839,17.2255888 1.219271,17.2365847 C1.23223154,17.2899646 1.24336951,17.3437444 1.25167236,17.3979241 C1.25308992,17.4063209 1.25389995,17.4149177 1.255115,17.4233145 C1.26281032,17.4798933 1.26767053,17.5366719 1.26787303,17.5944502 C1.26787303,17.5998482 1.26746802,17.6052462 1.26746802,17.6104442 C1.26686049,17.6716212 1.2622028,17.733398 1.25065981,17.7961744 C1.23526917,18.1370463 1.39788347,18.3897514 1.65547425,18.5958739 C1.68868564,18.5922753 1.71521425,18.5854778 1.73890774,18.5772809 C1.74457798,18.5752817 1.75024822,18.5730825 1.75531093,18.5708833 C1.7761693,18.5620866 1.79419255,18.5520904 1.80796313,18.5398949 C1.80836815,18.5394951 1.80897567,18.5392952 1.80938069,18.5388953 C1.82375879,18.5257003 1.83408672,18.510506 1.84218706,18.4941122 C1.84360462,18.4911133 1.84502218,18.4879145 1.84623723,18.4847157 C1.85150245,18.4723203 1.85555262,18.4591253 1.85818523,18.4455304 C1.85312252,18.4857153 1.84137703,18.5217018 1.81505093,18.5480919 C1.81262083,18.550291 1.80938069,18.5520904 1.80695059,18.5542895 C1.79459757,18.5648856 1.77900442,18.5730825 1.76077866,18.5798799 C1.75510842,18.5818792 1.74923567,18.5842783 1.7427554,18.5858777 C1.71845439,18.5922753 1.69050822,18.5964737 1.65547425,18.5958739 C1.65547425,18.6626488 1.65547425,18.7292238 1.65567676,18.7957988 C1.66114449,18.7868022 1.66802978,18.7816041 1.67532008,18.7782054 C1.67754767,18.7772058 1.67997778,18.7768059 1.68240788,18.7762062 C1.68807811,18.7748067 1.69415337,18.7744068 1.70063364,18.7754065 C1.70346876,18.7758063 1.70610137,18.7760062 1.709139,18.7768059 C1.71683432,18.7788052 1.72513716,18.782004 1.73384503,18.7866022 C1.7354651,18.7874019 1.73688266,18.7878018 1.73850272,18.7886015 C1.74923567,18.7945992 1.76057615,18.8019965 1.77211913,18.8103933 C1.77454923,18.8121926 1.77718184,18.8143918 1.77981445,18.8161911 C1.78933235,18.8233884 1.79905276,18.8311855 1.80897567,18.8393824 C1.81221581,18.8421814 1.81545594,18.8447804 1.81869608,18.8475793 C1.82983405,18.8569758 1.84097201,18.8665722 1.85231249,18.8763685 C1.85454008,18.8783678 1.85656516,18.8801671 1.85879276,18.8821663 C1.85879276,18.8819664 1.85879276,18.8819664 1.85859025,18.8819664 C1.83914943,18.8715703 1.81950611,18.8601746 1.79966028,18.8489788 C1.78629472,18.8413817 1.77292916,18.8339844 1.75956361,18.827187 C1.75672849,18.8257875 1.75369086,18.8239882 1.75085574,18.8225887 C1.73587011,18.8151915 1.72169452,18.8095936 1.70772144,18.8047954 C1.70387378,18.8035959 1.70022862,18.8025962 1.69658347,18.8015966 C1.68220537,18.7975981 1.66843479,18.7947992 1.65567676,18.7957988 C1.613555,19.1120799 1.75794354,19.3058071 2.0604912,19.3955734 C2.8828781,21.3406425 4.2356347,22.9088532 5.7056437,24.3936953 C6.43264912,25.275364 7.24268301,26.0750635 8.13594788,26.7927938 C8.39333615,27.1582565 8.60394496,27.5812975 9.14828773,27.5924933 C9.41073871,27.8841837 9.62843532,28.2378508 9.94272847,28.4569684 C11.9779386,29.8776346 13.9372081,31.3920655 15.8312698,32.9904649 C16.0108948,33.3093451 16.1939625,33.6234271 16.6411012,33.5904395 C16.6459614,33.5636495 16.6522392,33.5402583 16.6591245,33.5188664 C16.6613521,33.5120689 16.6639847,33.5062711 16.6664148,33.4998735 C16.6718825,33.4862786 16.6773502,33.4732835 16.683628,33.4616878 C16.6868681,33.45589 16.6901083,33.4504921 16.6935509,33.445294 C16.7000312,33.4350978 16.707119,33.4257014 16.7144093,33.4175044 C16.7178519,33.4137059 16.7212946,33.4095075 16.7249397,33.4061087 C16.7340526,33.397312 16.743773,33.3897149 16.7538984,33.3833173 C16.756126,33.3819178 16.7581511,33.3801185 16.7601762,33.3789189 C16.7733392,33.3715217 16.7869073,33.3657239 16.8012854,33.3615255 C16.802298,33.3613256 16.8033105,33.3611256 16.804323,33.3609257 C16.8174861,33.3571271 16.8312567,33.354928 16.8452298,33.3535285 C16.8480649,33.3531286 16.8511025,33.3531286 16.8541401,33.3529287 C16.8668982,33.352129 16.8800612,33.3519291 16.8932243,33.3525289 C16.8956544,33.3525289 16.8980845,33.3527288 16.9005146,33.3529287 C16.9155002,33.3537284 16.9308908,33.3555277 16.946079,33.3577269 C16.9310933,33.3567273 16.9163102,33.3567273 16.9017296,33.3573271 C16.9003121,33.3573271 16.8988945,33.3573271 16.8974769,33.357527 C16.8841114,33.3581268 16.8711508,33.3595262 16.8581903,33.3617254 C16.8553552,33.3621253 16.8527226,33.362725 16.8498874,33.3631249 C16.838547,33.365524 16.827409,33.3685229 16.8164736,33.3723214 C16.8128284,33.3737209 16.8091832,33.3747205 16.8055381,33.3763199 C16.7956152,33.3801185 16.7862998,33.3851166 16.7767819,33.3905146 C16.7727317,33.3929137 16.7686816,33.3949129 16.7646314,33.3977119 C16.756126,33.4033098 16.7480257,33.4103072 16.7399253,33.4175044 C16.7356727,33.421303 16.73142,33.4245018 16.7273698,33.4287002 C16.719877,33.4364973 16.7127892,33.4456939 16.7057014,33.4552902 C16.7018538,33.4602884 16.6978036,33.4646867 16.6941584,33.4702846 C16.6870706,33.4810806 16.6805904,33.4938757 16.6743126,33.5068709 C16.671275,33.5126687 16.6680348,33.5174669 16.6654022,33.5236646 C16.6564919,33.543657 16.6483915,33.5656488 16.6411012,33.5904395 C16.7597712,33.8733332 16.9622797,34.073258 17.2488291,34.1902141 C18.6167739,35.7406315 20.1580659,37.1379064 21.4150359,38.7874866 C21.6114692,39.0455896 21.7663881,39.1301578 21.9437856,38.6849251 C22.1950986,38.0537623 22.5685242,37.4651835 22.9312169,36.883602 C24.2098554,34.8333724 25.7778785,33.000861 27.3742528,31.191141 C28.478329,30.451419 29.0708687,29.229878 30.0868538,28.3999899 C31.0673998,27.5990908 32.0839923,26.8265811 32.8419815,25.7931694 L37.0946594,22.1945217 C37.3812089,22.0777655 37.5837174,21.8778407 37.7021849,21.594747 C38.9417392,20.84183 40.0796343,19.974156 40.9423204,18.7957988 C42.700094,16.6282133 43.645201,14.13535 43.9799475,11.3985784 L43.9799475,9.79917941 C43.8752506,9.20340328 44.1962266,8.56104466 43.777439,7.99985554 L43.777439,7.99985554 Z" id="Fill-1"></path>
            </g>
        </g>
    </g>
</svg>