<?xml version="1.0" encoding="UTF-8"?>
<svg width="206px" height="83px" viewBox="0 0 206 83" version="1.1" xmlns="http://www.w3.org/2000/svg" xmlns:xlink="http://www.w3.org/1999/xlink">
    <!-- Generator: Sketch 54.1 (76490) - https://sketchapp.com -->
    <title>1 leaf</title>
    <desc>Created with Sketch.</desc>
    <g id="Page-1" stroke="none" stroke-width="1" fill="none" fill-rule="evenodd">
        <g id="Artboard" transform="translate(-90.000000, -151.000000)">
            <g id="1-leaf" transform="translate(90.000000, 151.000000)">
                <path d="M124.378415,0.537442054 C111.001232,-1.37106447 97.4127039,2.0587823 84.7710532,6.79849031 C72.1299847,11.5408923 59.9773952,17.6212502 47,21.3607145 C50.5845083,25.5733607 54.1682404,29.7879311 57.7556598,34 C92.6156342,14.8539349 127.062818,10.6940142 154,11.746406 C144.597798,6.73325703 134.897307,2.03973187 124.378415,0.537442054 Z" id="Fill-20" fill="#4BBFA9"></path>
                <path d="M35.2923489,29 C24.0700786,46.6004066 11.2463465,62.4260422 -4.54747351e-13,80 C1.09822977,78.9783436 2.19823566,77.9568802 3.30001766,76.935996 C20.6623101,57.9127611 38.8812809,44.1277354 57,34.2793304 C50.3575353,31.2562545 42.5785558,29.2036749 35.2923489,29 Z" id="Fill-22" fill="#4BBFA9"></path>
                <path d="M1,82 C8.39151402,81.7799522 15.783222,81.5597087 23.174736,81.3396609 C28.5735863,81.178932 34.0480779,81.0062611 39.2151555,79.4175709 C43.7406395,78.0260231 47.8698794,75.5970793 52.1234426,73.5066253 C63.727596,67.8043728 75.8364127,65.3251156 88.557924,63.9572562 C85.8806094,60.4756461 87.1738819,54.7794625 86.197915,50.4621015 C84.9085215,44.7588701 82.2864833,39.3504714 78.5375834,34.8825616 C87.8926683,40.5685651 95.1509373,49.6837118 98.6409111,60.1283465 C99.8257644,56.6700332 104.333987,55.3857685 107.929858,54.9206141 C117.513419,53.6809855 127.2791,53.0721344 136.44644,49.991857 C145.613779,46.9115795 154.352678,40.887282 158.099639,31.8980167 C159.627787,28.2315978 160.236021,24.1898838 159.918133,20.2266744 C159.085109,20.1258518 158.254024,20.0309023 157.425655,19.9431964 C80.4724494,11.7834174 24.5035018,58.7624449 6.49989932,76.3365103 C3.77836364,78.9952906 1.92650912,80.9794403 1,82 Z" id="Fill-24" fill="#00A587"></path>
                <path d="M1.13296185,80.8651381 C0.755079297,81.2435458 0.377368195,81.6217729 -4.54747351e-13,82 C0.235062152,81.9927785 0.470124303,81.9853764 0.705186455,81.9781549 C1.53416202,80.952699 2.36553793,79.9387976 3.20017145,78.9443943 C3.46626661,78.6268279 3.73339048,78.3144972 4,78 C3.04260609,78.9545044 2.0869267,79.9099115 1.13296185,80.8651381 Z" id="Fill-26" fill="#00A587"></path>
                <path d="M206,21.7118016 C206,21.7118016 184.872905,13.3857289 153.661148,12.1525906 C126.723175,11.0856656 92.2749797,15.3030335 57.4139817,34.7134991 C57.3330513,34.7558327 57.2556144,34.8003123 57.1781774,34.8447919 C39.3597172,44.796906 21.4422775,58.7268223 4.36771679,77.9500054 C4.06573202,78.2898451 3.76355317,78.6273438 3.46215062,78.9704999 C2.51757486,80.0450333 1.57649249,81.1404408 0.638127208,82.2487241 C0.425418138,82.4996046 0.212126836,82.7471686 0,83 C0.0580292077,82.9332806 0.285294098,82.6744016 0.674225644,82.2475535 C1.6015285,81.2305705 3.45438752,79.2533746 6.17768465,76.6039124 C24.1931336,59.0914379 80.1981118,12.2772506 157.201318,20.4082374 C158.030223,20.495831 158.861652,20.5904476 159.695409,20.6907218 C172.712389,22.2572619 186.314707,25.3997062 200.427255,30.5209072 L206,21.7118016 Z" id="Fill-28" fill="#00736A"></path>
            </g>
        </g>
    </g>
</svg>